<?xml version="1.0" encoding="utf-8"?>
<!DOCTYPE svg PUBLIC "-//W3C//DTD SVG 1.1//EN" "http://www.w3.org/Graphics/SVG/1.1/DTD/svg11.dtd">
<svg version="1.1" id="Layer_1" xmlns="http://www.w3.org/2000/svg" xmlns:xlink="http://www.w3.org/1999/xlink" xmlns:bx="https://boxy-svg.com" x="0px" y="0px" width="192px" height="192px" viewBox="0 0 192 192" enable-background="new 0 0 192 192" xml:space="preserve">
<path d="m161.3 96.56c-22.37 0.439-17.71 14.6-33.47 18.18-16.01 3.638-18.54-39.11-34.55-39.11-16.01 0-19.56 41.53-39.61 70.03l-0.572 0.807 42.98 24.81 65.22-37.65v-37.07z" fill="#36A2EB"/>
<path d="m161.3 95.27c-7.488-9.61-12.57-20.66-23.49-20.66-19.34 0-14.25 31.54-35.62 31.54-21.37 0-23.62-33.93-47.83-2.035-7.715 10.16-13.92 21.5-18.8 32.22l60.53 34.94 65.22-37.65v-38.36z" fill="#FFCE56"/>
<path d="m30.83 108.3c7.338-20.32 10.5-36.78 24.51-36.78 21.37 0 26.46 60.04 44.78 53.93 18.32-6.105 16.28-38.67 44.78-38.67 5.424 0 10.96 3.323 16.37 8.698v38.11l-65.22 37.65-65.22-37.65v-25.29z" fill="#FE6184" opacity=".8"/>
<path d="m96 176-69.29-40v-80l69.29-40 69.29 40v80l-69.29 40zm-61.15-44.7 61.15 35.3 61.15-35.3v-70.6l-61.15-35.3-61.15 35.3v70.6z" fill="#E7E9ED"/>
<path d="m96.21 120.9c-9.377 0-16.97 7.598-16.97 16.97 0 9.377 7.598 16.97 16.97 16.97 9.377 0 16.97-7.598 16.97-16.97 0-9.377-7.598-16.97-16.97-16.97zm0 30.66c-7.563 0-13.69-6.126-13.69-13.69 0-7.563 6.126-13.69 13.69-13.69 7.563 0 13.69 6.126 13.69 13.69 0 7.563-6.126 13.69-13.69 13.69zm4.23-7.146-5.811-4.223c-0.212-0.1576-0.3352-0.4038-0.3352-0.6639v-11.24c0-0.4517 0.3696-0.8213 0.8214-0.8213h2.19c0.4517 0 0.8214 0.3696 0.8214 0.8213v9.699l4.572 3.326c0.3696 0.2668 0.4449 0.7803 0.178 1.15l-1.287 1.773c-0.2668 0.3628-0.7803 0.4449-1.15 0.178z" fill="#fff" stroke-width=".06845"/>
<path d="m141.2 114.9h-75.42l0.141 6.93-16.32-10.17 16.32-10.17-0.141 6.93h75.42z" fill="#fff" bx:origin="0.5 0.56826" bx:shape="arrow -86.957 -117.555 24.957 20.334 6.473 16.321 0.141 1@1d669265"/>
</svg>
